<svg width="24" height="24" viewBox="0 0 24 24" fill="none" xmlns="http://www.w3.org/2000/svg">
<g clip-path="url(#clip0_180_62)">
<path fill-rule="evenodd" clip-rule="evenodd" d="M24 12.2667C24 11.28 23.9183 10.56 23.7415 9.81332H12.2449V14.2666H18.9931C18.8571 15.3733 18.1224 17.04 16.4897 18.1599L16.4669 18.309L20.1019 21.0687L20.3537 21.0934C22.6666 19 24 15.92 24 12.2667Z" fill="#4285F4"/>
<path fill-rule="evenodd" clip-rule="evenodd" d="M12.2449 24C15.551 24 18.3264 22.9333 20.3537 21.0934L16.4897 18.1599C15.4557 18.8666 14.068 19.36 12.2449 19.36C9.00682 19.36 6.25855 17.2667 5.27884 14.3734L5.13528 14.3853L1.35551 17.252L1.30606 17.3867C3.31963 21.3066 7.45574 24 12.2449 24Z" fill="#34A853"/>
<path fill-rule="evenodd" clip-rule="evenodd" d="M5.27885 14.3734C5.02038 13.6267 4.87072 12.8267 4.87072 12.0001C4.87072 11.1733 5.02031 10.3734 5.26525 9.62671L5.25842 9.46766L1.43133 6.5549L1.30614 6.61329C0.476231 8.23999 7.62939e-05 10.0666 7.62939e-05 12C7.62939e-05 13.9333 0.476304 15.7599 1.30614 17.3866L5.27892 14.3733" fill="#FBBC04"/>
<path fill-rule="evenodd" clip-rule="evenodd" d="M12.2449 4.63996C14.5442 4.63996 16.0951 5.61333 16.9796 6.42672L20.4353 3.12004C18.313 1.18669 15.551 6.10352e-05 12.2449 6.10352e-05C7.45574 6.10352e-05 3.31971 2.69337 1.30606 6.61334L5.26525 9.62676C6.25855 6.73344 9.00682 4.64003 12.2449 4.64003" fill="#EA4335"/>
</g>
<defs>
<clipPath id="clip0_180_62">
<rect width="24" height="24" fill="white"/>
</clipPath>
</defs>
</svg>
