<svg width="29" height="20" viewBox="0 0 29 20" fill="none" xmlns="http://www.w3.org/2000/svg">
<path d="M4.43908 0H23.6751C24.8524 0 25.9815 0.408258 26.814 1.13496C27.6465 1.86166 28.1142 2.84729 28.1142 3.875V15.5C28.1142 16.5277 27.6465 17.5133 26.814 18.24C25.9815 18.9667 24.8524 19.375 23.6751 19.375H4.43908C3.26176 19.375 2.13267 18.9667 1.30018 18.24C0.467688 17.5133 0 16.5277 0 15.5V3.875C0 2.84729 0.467688 1.86166 1.30018 1.13496C2.13267 0.408258 3.26176 0 4.43908 0ZM4.43908 1.29167C3.69924 1.29167 3.04817 1.51125 2.54507 1.89875L14.0571 8.39583L25.5691 1.89875C25.066 1.51125 24.415 1.29167 23.6751 1.29167H4.43908ZM14.0571 9.95875L1.67205 2.945C1.55368 3.22917 1.47969 3.55208 1.47969 3.875V15.5C1.47969 16.1851 1.79149 16.8422 2.34648 17.3267C2.90147 17.8112 3.6542 18.0833 4.43908 18.0833H23.6751C24.46 18.0833 25.2127 17.8112 25.7677 17.3267C26.3227 16.8422 26.6345 16.1851 26.6345 15.5V3.875C26.6345 3.55208 26.5605 3.22917 26.4421 2.945L14.0571 9.95875Z" fill="#6FB2AE"/>
</svg>
